<mxfile host="app.diagrams.net" modified="2024-05-30T14:19:42.649Z" agent="Mozilla/5.0 (Windows NT 10.0; Win64; x64) AppleWebKit/537.36 (KHTML, like Gecko) Chrome/125.0.0.0 Safari/537.36 Edg/125.0.0.0" version="24.4.9" etag="wTPfjGVz99lcdXgaU_Zw" type="device">
  <diagram id="kola4m7gbilja5_Bbvh6" name="Страница — 1">
    <mxGraphModel dx="2260" dy="1768" grid="1" gridSize="10" guides="1" tooltips="1" connect="1" arrows="1" fold="1" page="1" pageScale="1" pageWidth="827" pageHeight="1169" math="0" shadow="0">
      <root>
        <mxCell id="0" />
        <mxCell id="1" parent="0" />
        <mxCell id="2X2wgZmx4aFdKQlFenH2-41" value="&lt;font style=&quot;font-size: 36px;&quot;&gt;figures&lt;/font&gt;" style="html=1;whiteSpace=wrap;" vertex="1" parent="1">
          <mxGeometry x="1491.5" y="1066" width="269" height="60" as="geometry" />
        </mxCell>
        <mxCell id="2X2wgZmx4aFdKQlFenH2-54" value="GameModesMenuWindow" style="swimlane;fontStyle=1;align=center;verticalAlign=top;childLayout=stackLayout;horizontal=1;startSize=26;horizontalStack=0;resizeParent=1;resizeParentMax=0;resizeLast=0;collapsible=1;marginBottom=0;whiteSpace=wrap;html=1;" vertex="1" parent="1">
          <mxGeometry x="190" y="520" width="250" height="160" as="geometry" />
        </mxCell>
        <mxCell id="2X2wgZmx4aFdKQlFenH2-55" value="- ui: Ui::GameModesMenuWindow" style="text;strokeColor=none;fillColor=none;align=left;verticalAlign=top;spacingLeft=4;spacingRight=4;overflow=hidden;rotatable=0;points=[[0,0.5],[1,0.5]];portConstraint=eastwest;whiteSpace=wrap;html=1;" vertex="1" parent="2X2wgZmx4aFdKQlFenH2-54">
          <mxGeometry y="26" width="250" height="26" as="geometry" />
        </mxCell>
        <mxCell id="2X2wgZmx4aFdKQlFenH2-56" value="" style="line;strokeWidth=1;fillColor=none;align=left;verticalAlign=middle;spacingTop=-1;spacingLeft=3;spacingRight=3;rotatable=0;labelPosition=right;points=[];portConstraint=eastwest;strokeColor=inherit;" vertex="1" parent="2X2wgZmx4aFdKQlFenH2-54">
          <mxGeometry y="52" width="250" height="8" as="geometry" />
        </mxCell>
        <mxCell id="2X2wgZmx4aFdKQlFenH2-57" value="&lt;div&gt;+ GameModesMenuWindow()&lt;/div&gt;&lt;div&gt;+ ~GameModesMenuWindow()&lt;/div&gt;&lt;div&gt;# keyPressEvent(QKeyEvent event)&lt;/div&gt;&lt;div&gt;&lt;div&gt;- slt on_btnPVsC_clicked()&lt;/div&gt;&lt;div&gt;- slt on_btnPVsPOfflane_clicked()&lt;/div&gt;&lt;div&gt;- slt on_btnPVsPOnline_clicked()&lt;/div&gt;&lt;/div&gt;&lt;div&gt;&lt;br&gt;&lt;/div&gt;" style="text;strokeColor=none;fillColor=none;align=left;verticalAlign=top;spacingLeft=4;spacingRight=4;overflow=hidden;rotatable=0;points=[[0,0.5],[1,0.5]];portConstraint=eastwest;whiteSpace=wrap;html=1;" vertex="1" parent="2X2wgZmx4aFdKQlFenH2-54">
          <mxGeometry y="60" width="250" height="100" as="geometry" />
        </mxCell>
        <mxCell id="2X2wgZmx4aFdKQlFenH2-142" style="edgeStyle=orthogonalEdgeStyle;rounded=0;orthogonalLoop=1;jettySize=auto;html=1;" edge="1" parent="1" source="2X2wgZmx4aFdKQlFenH2-62" target="2X2wgZmx4aFdKQlFenH2-54">
          <mxGeometry relative="1" as="geometry">
            <Array as="points">
              <mxPoint x="315" y="460" />
              <mxPoint x="315" y="460" />
            </Array>
          </mxGeometry>
        </mxCell>
        <mxCell id="2X2wgZmx4aFdKQlFenH2-144" style="edgeStyle=orthogonalEdgeStyle;rounded=0;orthogonalLoop=1;jettySize=auto;html=1;" edge="1" parent="1" source="2X2wgZmx4aFdKQlFenH2-62" target="2X2wgZmx4aFdKQlFenH2-95">
          <mxGeometry relative="1" as="geometry">
            <Array as="points">
              <mxPoint x="290" y="240" />
              <mxPoint x="360" y="240" />
              <mxPoint x="360" y="115" />
            </Array>
          </mxGeometry>
        </mxCell>
        <mxCell id="2X2wgZmx4aFdKQlFenH2-145" style="edgeStyle=orthogonalEdgeStyle;rounded=0;orthogonalLoop=1;jettySize=auto;html=1;" edge="1" parent="1" source="2X2wgZmx4aFdKQlFenH2-62" target="2X2wgZmx4aFdKQlFenH2-99">
          <mxGeometry relative="1" as="geometry">
            <Array as="points">
              <mxPoint x="570" y="365" />
            </Array>
          </mxGeometry>
        </mxCell>
        <mxCell id="2X2wgZmx4aFdKQlFenH2-146" style="edgeStyle=orthogonalEdgeStyle;rounded=0;orthogonalLoop=1;jettySize=auto;html=1;" edge="1" parent="1" source="2X2wgZmx4aFdKQlFenH2-62" target="2X2wgZmx4aFdKQlFenH2-103">
          <mxGeometry relative="1" as="geometry">
            <Array as="points">
              <mxPoint x="485" y="400" />
            </Array>
          </mxGeometry>
        </mxCell>
        <mxCell id="2X2wgZmx4aFdKQlFenH2-62" value="WindowHolder" style="swimlane;fontStyle=1;align=center;verticalAlign=top;childLayout=stackLayout;horizontal=1;startSize=26;horizontalStack=0;resizeParent=1;resizeParentMax=0;resizeLast=0;collapsible=1;marginBottom=0;whiteSpace=wrap;html=1;" vertex="1" parent="1">
          <mxGeometry x="210" y="300" width="220" height="130" as="geometry" />
        </mxCell>
        <mxCell id="2X2wgZmx4aFdKQlFenH2-135" style="edgeStyle=orthogonalEdgeStyle;rounded=0;orthogonalLoop=1;jettySize=auto;html=1;entryX=0.5;entryY=0;entryDx=0;entryDy=0;" edge="1" parent="2X2wgZmx4aFdKQlFenH2-62" source="2X2wgZmx4aFdKQlFenH2-63" target="2X2wgZmx4aFdKQlFenH2-62">
          <mxGeometry relative="1" as="geometry">
            <Array as="points">
              <mxPoint x="240" y="50" />
              <mxPoint x="240" y="-20" />
              <mxPoint x="110" y="-20" />
            </Array>
          </mxGeometry>
        </mxCell>
        <mxCell id="2X2wgZmx4aFdKQlFenH2-63" value="&lt;div&gt;- windowHolder: QMainWindow&lt;/div&gt;&lt;div&gt;- widgetStack: QStackedWidget&lt;/div&gt;" style="text;strokeColor=none;fillColor=none;align=left;verticalAlign=top;spacingLeft=4;spacingRight=4;overflow=hidden;rotatable=0;points=[[0,0.5],[1,0.5]];portConstraint=eastwest;whiteSpace=wrap;html=1;" vertex="1" parent="2X2wgZmx4aFdKQlFenH2-62">
          <mxGeometry y="26" width="220" height="44" as="geometry" />
        </mxCell>
        <mxCell id="2X2wgZmx4aFdKQlFenH2-64" value="" style="line;strokeWidth=1;fillColor=none;align=left;verticalAlign=middle;spacingTop=-1;spacingLeft=3;spacingRight=3;rotatable=0;labelPosition=right;points=[];portConstraint=eastwest;strokeColor=inherit;" vertex="1" parent="2X2wgZmx4aFdKQlFenH2-62">
          <mxGeometry y="70" width="220" height="8" as="geometry" />
        </mxCell>
        <mxCell id="2X2wgZmx4aFdKQlFenH2-65" value="&lt;div&gt;+ instance(QWidget widget)&lt;/div&gt;&lt;div&gt;+ holdPrevWidget()&lt;/div&gt;" style="text;strokeColor=none;fillColor=none;align=left;verticalAlign=top;spacingLeft=4;spacingRight=4;overflow=hidden;rotatable=0;points=[[0,0.5],[1,0.5]];portConstraint=eastwest;whiteSpace=wrap;html=1;" vertex="1" parent="2X2wgZmx4aFdKQlFenH2-62">
          <mxGeometry y="78" width="220" height="52" as="geometry" />
        </mxCell>
        <mxCell id="2X2wgZmx4aFdKQlFenH2-66" value="FigureGraphicItem" style="swimlane;fontStyle=1;align=center;verticalAlign=top;childLayout=stackLayout;horizontal=1;startSize=26;horizontalStack=0;resizeParent=1;resizeParentMax=0;resizeLast=0;collapsible=1;marginBottom=0;whiteSpace=wrap;html=1;" vertex="1" parent="1">
          <mxGeometry x="1050" y="640" width="200" height="130" as="geometry" />
        </mxCell>
        <mxCell id="2X2wgZmx4aFdKQlFenH2-67" value="- size: int" style="text;strokeColor=none;fillColor=none;align=left;verticalAlign=top;spacingLeft=4;spacingRight=4;overflow=hidden;rotatable=0;points=[[0,0.5],[1,0.5]];portConstraint=eastwest;whiteSpace=wrap;html=1;" vertex="1" parent="2X2wgZmx4aFdKQlFenH2-66">
          <mxGeometry y="26" width="200" height="26" as="geometry" />
        </mxCell>
        <mxCell id="2X2wgZmx4aFdKQlFenH2-68" value="" style="line;strokeWidth=1;fillColor=none;align=left;verticalAlign=middle;spacingTop=-1;spacingLeft=3;spacingRight=3;rotatable=0;labelPosition=right;points=[];portConstraint=eastwest;strokeColor=inherit;" vertex="1" parent="2X2wgZmx4aFdKQlFenH2-66">
          <mxGeometry y="52" width="200" height="8" as="geometry" />
        </mxCell>
        <mxCell id="2X2wgZmx4aFdKQlFenH2-69" value="&lt;div&gt;+ FigureGraphicItem(QPoint scenePos, int size)&lt;/div&gt;&lt;div&gt;+ setFigurePixmap(QString fileNameToFigureImage)&lt;/div&gt;" style="text;strokeColor=none;fillColor=none;align=left;verticalAlign=top;spacingLeft=4;spacingRight=4;overflow=hidden;rotatable=0;points=[[0,0.5],[1,0.5]];portConstraint=eastwest;whiteSpace=wrap;html=1;" vertex="1" parent="2X2wgZmx4aFdKQlFenH2-66">
          <mxGeometry y="60" width="200" height="70" as="geometry" />
        </mxCell>
        <mxCell id="2X2wgZmx4aFdKQlFenH2-70" value="HighliteGraphicItem" style="swimlane;fontStyle=1;align=center;verticalAlign=top;childLayout=stackLayout;horizontal=1;startSize=26;horizontalStack=0;resizeParent=1;resizeParentMax=0;resizeLast=0;collapsible=1;marginBottom=0;whiteSpace=wrap;html=1;" vertex="1" parent="1">
          <mxGeometry x="1050" y="500" width="180" height="90" as="geometry" />
        </mxCell>
        <mxCell id="2X2wgZmx4aFdKQlFenH2-72" value="" style="line;strokeWidth=1;fillColor=none;align=left;verticalAlign=middle;spacingTop=-1;spacingLeft=3;spacingRight=3;rotatable=0;labelPosition=right;points=[];portConstraint=eastwest;strokeColor=inherit;" vertex="1" parent="2X2wgZmx4aFdKQlFenH2-70">
          <mxGeometry y="26" width="180" height="8" as="geometry" />
        </mxCell>
        <mxCell id="2X2wgZmx4aFdKQlFenH2-73" value="+ HighliteGraphicItem(QPoint scenePos, int size, bool isEnemy)" style="text;strokeColor=none;fillColor=none;align=left;verticalAlign=top;spacingLeft=4;spacingRight=4;overflow=hidden;rotatable=0;points=[[0,0.5],[1,0.5]];portConstraint=eastwest;whiteSpace=wrap;html=1;" vertex="1" parent="2X2wgZmx4aFdKQlFenH2-70">
          <mxGeometry y="34" width="180" height="56" as="geometry" />
        </mxCell>
        <mxCell id="2X2wgZmx4aFdKQlFenH2-74" value="ChessScene" style="swimlane;fontStyle=1;align=center;verticalAlign=top;childLayout=stackLayout;horizontal=1;startSize=26;horizontalStack=0;resizeParent=1;resizeParentMax=0;resizeLast=0;collapsible=1;marginBottom=0;whiteSpace=wrap;html=1;" vertex="1" parent="1">
          <mxGeometry x="670" y="490" width="260" height="310" as="geometry" />
        </mxCell>
        <mxCell id="2X2wgZmx4aFdKQlFenH2-75" value="&lt;div&gt;- highlitesGraphicItems: std::vector&amp;lt;HighliteGraphicItem*&amp;gt;*&lt;/div&gt;&lt;div&gt;- figuresGraphicItems: std::vector&amp;lt;std::vector&amp;lt;FigureGraphicItem*&amp;gt;&amp;gt;*&lt;/div&gt;&lt;div&gt;- gameMode: GameMode*&lt;/div&gt;&lt;div&gt;- sceneSize: int&lt;/div&gt;&lt;div&gt;- sideSize: int&lt;/div&gt;&lt;div&gt;- startPos: QPoint&lt;/div&gt;&lt;div&gt;- SIDE_SIZE_IN_CELL: static const int&lt;/div&gt;" style="text;strokeColor=none;fillColor=none;align=left;verticalAlign=top;spacingLeft=4;spacingRight=4;overflow=hidden;rotatable=0;points=[[0,0.5],[1,0.5]];portConstraint=eastwest;whiteSpace=wrap;html=1;" vertex="1" parent="2X2wgZmx4aFdKQlFenH2-74">
          <mxGeometry y="26" width="260" height="144" as="geometry" />
        </mxCell>
        <mxCell id="2X2wgZmx4aFdKQlFenH2-76" value="" style="line;strokeWidth=1;fillColor=none;align=left;verticalAlign=middle;spacingTop=-1;spacingLeft=3;spacingRight=3;rotatable=0;labelPosition=right;points=[];portConstraint=eastwest;strokeColor=inherit;" vertex="1" parent="2X2wgZmx4aFdKQlFenH2-74">
          <mxGeometry y="170" width="260" height="8" as="geometry" />
        </mxCell>
        <mxCell id="2X2wgZmx4aFdKQlFenH2-77" value="&lt;div&gt;&lt;span style=&quot;background-color: initial;&quot;&gt;# mousePressEvent(QEvent *event)&amp;nbsp;&lt;/span&gt;&lt;br&gt;&lt;/div&gt;&lt;div&gt;&lt;div&gt;# mouseReleaseEvent(QEvent *event)&lt;/div&gt;&lt;/div&gt;&lt;div&gt;+ ChessScene()&lt;/div&gt;&lt;div&gt;+ ~ChessScene()&lt;span style=&quot;background-color: initial;&quot;&gt;&amp;nbsp;&lt;/span&gt;&lt;/div&gt;&lt;div&gt;+ removeHighlite()&lt;/div&gt;&lt;div&gt;+ addHighlite()&lt;/div&gt;&lt;div&gt;sgn&lt;span style=&quot;background-color: initial;&quot;&gt;&amp;nbsp;signalOtherTurn()&lt;/span&gt;&lt;/div&gt;&lt;div&gt;sgn signalNewLog(QString log)&lt;/div&gt;&lt;div&gt;&lt;br&gt;&lt;/div&gt;" style="text;strokeColor=none;fillColor=none;align=left;verticalAlign=top;spacingLeft=4;spacingRight=4;overflow=hidden;rotatable=0;points=[[0,0.5],[1,0.5]];portConstraint=eastwest;whiteSpace=wrap;html=1;" vertex="1" parent="2X2wgZmx4aFdKQlFenH2-74">
          <mxGeometry y="178" width="260" height="132" as="geometry" />
        </mxCell>
        <mxCell id="2X2wgZmx4aFdKQlFenH2-78" value="SettingsJson" style="swimlane;fontStyle=1;align=center;verticalAlign=top;childLayout=stackLayout;horizontal=1;startSize=26;horizontalStack=0;resizeParent=1;resizeParentMax=0;resizeLast=0;collapsible=1;marginBottom=0;whiteSpace=wrap;html=1;" vertex="1" parent="1">
          <mxGeometry x="850" y="10" width="230" height="270" as="geometry" />
        </mxCell>
        <mxCell id="2X2wgZmx4aFdKQlFenH2-79" value="&lt;div&gt;- colorFigureInBottom: FigureColor&lt;/div&gt;&lt;div&gt;- minOnTimer: int&lt;/div&gt;&lt;div&gt;- secOnTimer: int&lt;/div&gt;&lt;div&gt;- figureDisposition: FigureDisposition&lt;/div&gt;&lt;div&gt;- fileNameOfFigureDisposition: std::string&lt;/div&gt;&lt;div&gt;-&amp;nbsp;FILE_PATH_TO_JSON: static const char[]&lt;/div&gt;" style="text;strokeColor=none;fillColor=none;align=left;verticalAlign=top;spacingLeft=4;spacingRight=4;overflow=hidden;rotatable=0;points=[[0,0.5],[1,0.5]];portConstraint=eastwest;whiteSpace=wrap;html=1;" vertex="1" parent="2X2wgZmx4aFdKQlFenH2-78">
          <mxGeometry y="26" width="230" height="114" as="geometry" />
        </mxCell>
        <mxCell id="2X2wgZmx4aFdKQlFenH2-80" value="" style="line;strokeWidth=1;fillColor=none;align=left;verticalAlign=middle;spacingTop=-1;spacingLeft=3;spacingRight=3;rotatable=0;labelPosition=right;points=[];portConstraint=eastwest;strokeColor=inherit;" vertex="1" parent="2X2wgZmx4aFdKQlFenH2-78">
          <mxGeometry y="140" width="230" height="8" as="geometry" />
        </mxCell>
        <mxCell id="2X2wgZmx4aFdKQlFenH2-81" value="&lt;div&gt;+ SettingsJson()&lt;/div&gt;&lt;div&gt;+ ~SettingsJson()&lt;/div&gt;&lt;div&gt;+ saveParametresToJsonFile(\&lt;/div&gt;&lt;div&gt;SettingsJson settingsJson): bool&lt;/div&gt;&lt;div&gt;+ updateParametresFromJsonFile(&lt;/div&gt;&lt;div&gt;SettingsJson &amp;amp;settingsJson): bool&lt;/div&gt;&lt;div&gt;- saveDefaulteParameter(SettingsJson&amp;amp; settingsJson): bool&lt;br&gt;&lt;/div&gt;" style="text;strokeColor=none;fillColor=none;align=left;verticalAlign=top;spacingLeft=4;spacingRight=4;overflow=hidden;rotatable=0;points=[[0,0.5],[1,0.5]];portConstraint=eastwest;whiteSpace=wrap;html=1;" vertex="1" parent="2X2wgZmx4aFdKQlFenH2-78">
          <mxGeometry y="148" width="230" height="122" as="geometry" />
        </mxCell>
        <mxCell id="2X2wgZmx4aFdKQlFenH2-82" value="CellGraphicItem" style="swimlane;fontStyle=1;align=center;verticalAlign=top;childLayout=stackLayout;horizontal=1;startSize=26;horizontalStack=0;resizeParent=1;resizeParentMax=0;resizeLast=0;collapsible=1;marginBottom=0;whiteSpace=wrap;html=1;" vertex="1" parent="1">
          <mxGeometry x="1050" y="790" width="220" height="70" as="geometry" />
        </mxCell>
        <mxCell id="2X2wgZmx4aFdKQlFenH2-84" value="" style="line;strokeWidth=1;fillColor=none;align=left;verticalAlign=middle;spacingTop=-1;spacingLeft=3;spacingRight=3;rotatable=0;labelPosition=right;points=[];portConstraint=eastwest;strokeColor=inherit;" vertex="1" parent="2X2wgZmx4aFdKQlFenH2-82">
          <mxGeometry y="26" width="220" height="8" as="geometry" />
        </mxCell>
        <mxCell id="2X2wgZmx4aFdKQlFenH2-85" value="+&amp;nbsp;CellGraphicItem(QPoint scenePos, int size, bool isWhite)" style="text;strokeColor=none;fillColor=none;align=left;verticalAlign=top;spacingLeft=4;spacingRight=4;overflow=hidden;rotatable=0;points=[[0,0.5],[1,0.5]];portConstraint=eastwest;whiteSpace=wrap;html=1;" vertex="1" parent="2X2wgZmx4aFdKQlFenH2-82">
          <mxGeometry y="34" width="220" height="36" as="geometry" />
        </mxCell>
        <mxCell id="2X2wgZmx4aFdKQlFenH2-86" value="WinDialog" style="swimlane;fontStyle=1;align=center;verticalAlign=top;childLayout=stackLayout;horizontal=1;startSize=26;horizontalStack=0;resizeParent=1;resizeParentMax=0;resizeLast=0;collapsible=1;marginBottom=0;whiteSpace=wrap;html=1;" vertex="1" parent="1">
          <mxGeometry x="450" y="1114" width="160" height="84" as="geometry" />
        </mxCell>
        <mxCell id="2X2wgZmx4aFdKQlFenH2-88" value="" style="line;strokeWidth=1;fillColor=none;align=left;verticalAlign=middle;spacingTop=-1;spacingLeft=3;spacingRight=3;rotatable=0;labelPosition=right;points=[];portConstraint=eastwest;strokeColor=inherit;" vertex="1" parent="2X2wgZmx4aFdKQlFenH2-86">
          <mxGeometry y="26" width="160" height="8" as="geometry" />
        </mxCell>
        <mxCell id="2X2wgZmx4aFdKQlFenH2-89" value="+ WinDialog(int numberOfWinner)" style="text;strokeColor=none;fillColor=none;align=left;verticalAlign=top;spacingLeft=4;spacingRight=4;overflow=hidden;rotatable=0;points=[[0,0.5],[1,0.5]];portConstraint=eastwest;whiteSpace=wrap;html=1;" vertex="1" parent="2X2wgZmx4aFdKQlFenH2-86">
          <mxGeometry y="34" width="160" height="50" as="geometry" />
        </mxCell>
        <mxCell id="2X2wgZmx4aFdKQlFenH2-95" value="SettingsWindow" style="swimlane;fontStyle=1;align=center;verticalAlign=top;childLayout=stackLayout;horizontal=1;startSize=26;horizontalStack=0;resizeParent=1;resizeParentMax=0;resizeLast=0;collapsible=1;marginBottom=0;whiteSpace=wrap;html=1;" vertex="1" parent="1">
          <mxGeometry x="410" y="50" width="300" height="130" as="geometry" />
        </mxCell>
        <mxCell id="2X2wgZmx4aFdKQlFenH2-96" value="- ui: Ui::SettingsWindow*" style="text;strokeColor=none;fillColor=none;align=left;verticalAlign=top;spacingLeft=4;spacingRight=4;overflow=hidden;rotatable=0;points=[[0,0.5],[1,0.5]];portConstraint=eastwest;whiteSpace=wrap;html=1;" vertex="1" parent="2X2wgZmx4aFdKQlFenH2-95">
          <mxGeometry y="26" width="300" height="26" as="geometry" />
        </mxCell>
        <mxCell id="2X2wgZmx4aFdKQlFenH2-97" value="" style="line;strokeWidth=1;fillColor=none;align=left;verticalAlign=middle;spacingTop=-1;spacingLeft=3;spacingRight=3;rotatable=0;labelPosition=right;points=[];portConstraint=eastwest;strokeColor=inherit;" vertex="1" parent="2X2wgZmx4aFdKQlFenH2-95">
          <mxGeometry y="52" width="300" height="8" as="geometry" />
        </mxCell>
        <mxCell id="2X2wgZmx4aFdKQlFenH2-98" value="&lt;div&gt;- slt on_btnSave_clicked()&lt;/div&gt;&lt;div&gt;- on_btnSetFileNameToFigureDisposition_clicked()&amp;nbsp;&lt;/div&gt;&lt;div&gt;- slt on_rBtnClassicDisposition_clicked()&amp;nbsp;&lt;/div&gt;&lt;div&gt;- slt on_rBtnCustomDisposition_clicked()&lt;/div&gt;" style="text;strokeColor=none;fillColor=none;align=left;verticalAlign=top;spacingLeft=4;spacingRight=4;overflow=hidden;rotatable=0;points=[[0,0.5],[1,0.5]];portConstraint=eastwest;whiteSpace=wrap;html=1;" vertex="1" parent="2X2wgZmx4aFdKQlFenH2-95">
          <mxGeometry y="60" width="300" height="70" as="geometry" />
        </mxCell>
        <mxCell id="2X2wgZmx4aFdKQlFenH2-99" value="MenuWindow" style="swimlane;fontStyle=1;align=center;verticalAlign=top;childLayout=stackLayout;horizontal=1;startSize=26;horizontalStack=0;resizeParent=1;resizeParentMax=0;resizeLast=0;collapsible=1;marginBottom=0;whiteSpace=wrap;html=1;" vertex="1" parent="1">
          <mxGeometry x="500" y="209" width="190" height="100" as="geometry" />
        </mxCell>
        <mxCell id="2X2wgZmx4aFdKQlFenH2-100" value="- ui: Ui::SettingsWindow*" style="text;strokeColor=none;fillColor=none;align=left;verticalAlign=top;spacingLeft=4;spacingRight=4;overflow=hidden;rotatable=0;points=[[0,0.5],[1,0.5]];portConstraint=eastwest;whiteSpace=wrap;html=1;" vertex="1" parent="2X2wgZmx4aFdKQlFenH2-99">
          <mxGeometry y="26" width="190" height="26" as="geometry" />
        </mxCell>
        <mxCell id="2X2wgZmx4aFdKQlFenH2-101" value="" style="line;strokeWidth=1;fillColor=none;align=left;verticalAlign=middle;spacingTop=-1;spacingLeft=3;spacingRight=3;rotatable=0;labelPosition=right;points=[];portConstraint=eastwest;strokeColor=inherit;" vertex="1" parent="2X2wgZmx4aFdKQlFenH2-99">
          <mxGeometry y="52" width="190" height="8" as="geometry" />
        </mxCell>
        <mxCell id="2X2wgZmx4aFdKQlFenH2-102" value="&lt;div&gt;- slt on_btnPlay_clicked()&amp;nbsp;&lt;/div&gt;&lt;div&gt;&lt;span style=&quot;background-color: initial;&quot;&gt;- slton_btnSettings_clicked()&amp;nbsp;&lt;/span&gt;&lt;/div&gt;" style="text;strokeColor=none;fillColor=none;align=left;verticalAlign=top;spacingLeft=4;spacingRight=4;overflow=hidden;rotatable=0;points=[[0,0.5],[1,0.5]];portConstraint=eastwest;whiteSpace=wrap;html=1;" vertex="1" parent="2X2wgZmx4aFdKQlFenH2-99">
          <mxGeometry y="60" width="190" height="40" as="geometry" />
        </mxCell>
        <mxCell id="2X2wgZmx4aFdKQlFenH2-103" value="GameWindow" style="swimlane;fontStyle=1;align=center;verticalAlign=top;childLayout=stackLayout;horizontal=1;startSize=26;horizontalStack=0;resizeParent=1;resizeParentMax=0;resizeLast=0;collapsible=1;marginBottom=0;whiteSpace=wrap;html=1;" vertex="1" parent="1">
          <mxGeometry x="400" y="790" width="230" height="250" as="geometry" />
        </mxCell>
        <mxCell id="2X2wgZmx4aFdKQlFenH2-104" value="&lt;div&gt;- ui: Ui::GameWindow*&amp;nbsp;&lt;/div&gt;&lt;div&gt;- timerOne: QTimer&amp;nbsp;&lt;/div&gt;&lt;div&gt;- timerTwo: QTimer&lt;/div&gt;&lt;div&gt;- gameMode: GameMode*&amp;nbsp;&lt;/div&gt;&lt;div&gt;&lt;span style=&quot;background-color: initial;&quot;&gt;- timePlayerOne: QTime&lt;/span&gt;&lt;/div&gt;&lt;div&gt;- imePlayerTwo: QTime&lt;/div&gt;&lt;div&gt;- timerToString(QTime &amp;amp;time): QString&amp;nbsp;&lt;/div&gt;" style="text;strokeColor=none;fillColor=none;align=left;verticalAlign=top;spacingLeft=4;spacingRight=4;overflow=hidden;rotatable=0;points=[[0,0.5],[1,0.5]];portConstraint=eastwest;whiteSpace=wrap;html=1;" vertex="1" parent="2X2wgZmx4aFdKQlFenH2-103">
          <mxGeometry y="26" width="230" height="114" as="geometry" />
        </mxCell>
        <mxCell id="2X2wgZmx4aFdKQlFenH2-105" value="" style="line;strokeWidth=1;fillColor=none;align=left;verticalAlign=middle;spacingTop=-1;spacingLeft=3;spacingRight=3;rotatable=0;labelPosition=right;points=[];portConstraint=eastwest;strokeColor=inherit;" vertex="1" parent="2X2wgZmx4aFdKQlFenH2-103">
          <mxGeometry y="140" width="230" height="8" as="geometry" />
        </mxCell>
        <mxCell id="2X2wgZmx4aFdKQlFenH2-106" value="&lt;div&gt;- slt startTimerOne()|&lt;/div&gt;&lt;div&gt;&lt;span style=&quot;background-color: initial;&quot;&gt;- slt&amp;nbsp;&lt;/span&gt;startTimerTwo()&lt;/div&gt;&lt;div&gt;&lt;span style=&quot;background-color: initial;&quot;&gt;- slt&amp;nbsp;&lt;/span&gt;decrementTimeOne()&lt;/div&gt;&lt;div&gt;&lt;span style=&quot;background-color: initial;&quot;&gt;- slt&lt;/span&gt;decrementTimeTwo()&lt;/div&gt;&lt;div&gt;&lt;span style=&quot;background-color: initial;&quot;&gt;- slt&amp;nbsp;&lt;/span&gt;switchTimer()&lt;/div&gt;&lt;div&gt;&lt;span style=&quot;background-color: initial;&quot;&gt;- slt&amp;nbsp;&lt;/span&gt;postNewLog(QString event)&amp;nbsp;&lt;/div&gt;" style="text;strokeColor=none;fillColor=none;align=left;verticalAlign=top;spacingLeft=4;spacingRight=4;overflow=hidden;rotatable=0;points=[[0,0.5],[1,0.5]];portConstraint=eastwest;whiteSpace=wrap;html=1;" vertex="1" parent="2X2wgZmx4aFdKQlFenH2-103">
          <mxGeometry y="148" width="230" height="102" as="geometry" />
        </mxCell>
        <mxCell id="2X2wgZmx4aFdKQlFenH2-112" value="&lt;div&gt;&amp;lt;&amp;lt;interface&amp;gt;&amp;gt;&lt;/div&gt;ActionBehavior" style="swimlane;fontStyle=1;align=center;verticalAlign=top;childLayout=stackLayout;horizontal=1;startSize=40;horizontalStack=0;resizeParent=1;resizeParentMax=0;resizeLast=0;collapsible=1;marginBottom=0;whiteSpace=wrap;html=1;" vertex="1" parent="1">
          <mxGeometry x="1821" y="1250" width="310" height="94" as="geometry" />
        </mxCell>
        <mxCell id="2X2wgZmx4aFdKQlFenH2-114" value="" style="line;strokeWidth=1;fillColor=none;align=left;verticalAlign=middle;spacingTop=-1;spacingLeft=3;spacingRight=3;rotatable=0;labelPosition=right;points=[];portConstraint=eastwest;strokeColor=inherit;" vertex="1" parent="2X2wgZmx4aFdKQlFenH2-112">
          <mxGeometry y="40" width="310" height="8" as="geometry" />
        </mxCell>
        <mxCell id="2X2wgZmx4aFdKQlFenH2-115" value="+ action(uint64_t bitboard, uint64_t blocking): uint64_t" style="text;strokeColor=none;fillColor=none;align=left;verticalAlign=top;spacingLeft=4;spacingRight=4;overflow=hidden;rotatable=0;points=[[0,0.5],[1,0.5]];portConstraint=eastwest;whiteSpace=wrap;html=1;" vertex="1" parent="2X2wgZmx4aFdKQlFenH2-112">
          <mxGeometry y="48" width="310" height="46" as="geometry" />
        </mxCell>
        <mxCell id="2X2wgZmx4aFdKQlFenH2-116" value="Figure" style="swimlane;fontStyle=1;align=center;verticalAlign=top;childLayout=stackLayout;horizontal=1;startSize=26;horizontalStack=0;resizeParent=1;resizeParentMax=0;resizeLast=0;collapsible=1;marginBottom=0;whiteSpace=wrap;html=1;" vertex="1" parent="1">
          <mxGeometry x="1680" y="630" width="350" height="220" as="geometry" />
        </mxCell>
        <mxCell id="2X2wgZmx4aFdKQlFenH2-117" value="&lt;div&gt;+ moveEqualAttack: bool const&lt;/div&gt;&lt;div&gt;+ figureColor: FigureColor const&lt;/div&gt;&lt;div&gt;+ name: QString const&amp;nbsp;&lt;/div&gt;" style="text;strokeColor=none;fillColor=none;align=left;verticalAlign=top;spacingLeft=4;spacingRight=4;overflow=hidden;rotatable=0;points=[[0,0.5],[1,0.5]];portConstraint=eastwest;whiteSpace=wrap;html=1;" vertex="1" parent="2X2wgZmx4aFdKQlFenH2-116">
          <mxGeometry y="26" width="350" height="54" as="geometry" />
        </mxCell>
        <mxCell id="2X2wgZmx4aFdKQlFenH2-118" value="" style="line;strokeWidth=1;fillColor=none;align=left;verticalAlign=middle;spacingTop=-1;spacingLeft=3;spacingRight=3;rotatable=0;labelPosition=right;points=[];portConstraint=eastwest;strokeColor=inherit;" vertex="1" parent="2X2wgZmx4aFdKQlFenH2-116">
          <mxGeometry y="80" width="350" height="8" as="geometry" />
        </mxCell>
        <mxCell id="2X2wgZmx4aFdKQlFenH2-119" value="&lt;div&gt;&lt;div&gt;+ Figure(&lt;span style=&quot;background-color: initial;&quot;&gt;FigureColor figureColor,&amp;nbsp;&lt;/span&gt;&lt;span style=&quot;background-color: initial;&quot;&gt;QString name,&lt;/span&gt;&lt;/div&gt;&lt;div&gt;&lt;span style=&quot;background-color: initial;&quot;&gt;&amp;nbsp;&lt;/span&gt;&lt;span style=&quot;background-color: initial;&quot;&gt;ActionBehavior *moveWithAttackBehavior&lt;/span&gt;&lt;span style=&quot;background-color: initial;&quot;&gt;)&lt;/span&gt;&lt;/div&gt;&lt;/div&gt;&lt;div&gt;&lt;span style=&quot;background-color: initial;&quot;&gt;&lt;div&gt;+ Figure(&lt;span style=&quot;background-color: initial;&quot;&gt;FigureColor figureColor,&amp;nbsp;&lt;/span&gt;&lt;span style=&quot;background-color: initial;&quot;&gt;QStringname,&lt;/span&gt;&lt;/div&gt;&lt;div&gt;&lt;span style=&quot;background-color: initial;&quot;&gt;&amp;nbsp;&lt;/span&gt;&lt;span style=&quot;background-color: initial;&quot;&gt;*moveBehavior,&amp;nbsp;&lt;/span&gt;&lt;span style=&quot;background-color: initial;&quot;&gt;ActionBehavior *attackBehavior&lt;/span&gt;&lt;span style=&quot;background-color: initial;&quot;&gt;)&lt;/span&gt;&lt;/div&gt;&lt;div&gt;+ ~Figure()&lt;span style=&quot;background-color: initial;&quot;&gt;&lt;br&gt;&lt;/span&gt;&lt;/div&gt;&lt;/span&gt;&lt;/div&gt;&lt;div&gt;+ move(uint64_t bitboard, uint64_t blocking): uint64_t&lt;/div&gt;&lt;div&gt;+ attack(uint64_t bitboard, uint64_t blocking): uint64_t&lt;/div&gt;&lt;div&gt;+ getFilePathToImage(): QString&lt;/div&gt;" style="text;strokeColor=none;fillColor=none;align=left;verticalAlign=top;spacingLeft=4;spacingRight=4;overflow=hidden;rotatable=0;points=[[0,0.5],[1,0.5]];portConstraint=eastwest;whiteSpace=wrap;html=1;" vertex="1" parent="2X2wgZmx4aFdKQlFenH2-116">
          <mxGeometry y="88" width="350" height="132" as="geometry" />
        </mxCell>
        <mxCell id="2X2wgZmx4aFdKQlFenH2-167" style="edgeStyle=orthogonalEdgeStyle;rounded=0;orthogonalLoop=1;jettySize=auto;html=1;" edge="1" parent="1" source="2X2wgZmx4aFdKQlFenH2-120" target="2X2wgZmx4aFdKQlFenH2-119">
          <mxGeometry relative="1" as="geometry">
            <Array as="points">
              <mxPoint x="1945" y="910" />
              <mxPoint x="1990" y="910" />
            </Array>
          </mxGeometry>
        </mxCell>
        <mxCell id="2X2wgZmx4aFdKQlFenH2-120" value="&lt;font style=&quot;font-size: 36px;&quot;&gt;actions&lt;/font&gt;" style="html=1;whiteSpace=wrap;" vertex="1" parent="1">
          <mxGeometry x="1841.5" y="951" width="269" height="50" as="geometry" />
        </mxCell>
        <mxCell id="2X2wgZmx4aFdKQlFenH2-122" value="Extends" style="endArrow=block;endSize=16;endFill=0;html=1;rounded=0;entryX=0.044;entryY=0.995;entryDx=0;entryDy=0;entryPerimeter=0;exitX=0.757;exitY=0;exitDx=0;exitDy=0;exitPerimeter=0;" edge="1" parent="1" source="2X2wgZmx4aFdKQlFenH2-41" target="2X2wgZmx4aFdKQlFenH2-119">
          <mxGeometry width="160" relative="1" as="geometry">
            <mxPoint x="1695" y="1060" as="sourcePoint" />
            <mxPoint x="1571" y="942.5" as="targetPoint" />
          </mxGeometry>
        </mxCell>
        <mxCell id="2X2wgZmx4aFdKQlFenH2-128" value="" style="html=1;whiteSpace=wrap;" vertex="1" parent="1">
          <mxGeometry x="1491" y="1126" width="270" height="160" as="geometry" />
        </mxCell>
        <mxCell id="2X2wgZmx4aFdKQlFenH2-129" value="" style="html=1;whiteSpace=wrap;" vertex="1" parent="1">
          <mxGeometry x="1841.5" y="1001" width="269" height="160" as="geometry" />
        </mxCell>
        <mxCell id="2X2wgZmx4aFdKQlFenH2-124" value="Action" style="swimlane;fontStyle=0;childLayout=stackLayout;horizontal=1;startSize=26;fillColor=none;horizontalStack=0;resizeParent=1;resizeParentMax=0;resizeLast=0;collapsible=1;marginBottom=0;whiteSpace=wrap;html=1;" vertex="1" parent="1">
          <mxGeometry x="1901.5" y="1029" width="140" height="80" as="geometry" />
        </mxCell>
        <mxCell id="2X2wgZmx4aFdKQlFenH2-125" value="+action(uint64_t bitboard, uint64_t blocking): uint64_t" style="text;strokeColor=none;fillColor=none;align=left;verticalAlign=top;spacingLeft=4;spacingRight=4;overflow=hidden;rotatable=0;points=[[0,0.5],[1,0.5]];portConstraint=eastwest;whiteSpace=wrap;html=1;" vertex="1" parent="2X2wgZmx4aFdKQlFenH2-124">
          <mxGeometry y="26" width="140" height="54" as="geometry" />
        </mxCell>
        <mxCell id="2X2wgZmx4aFdKQlFenH2-130" value="Figure" style="swimlane;fontStyle=0;childLayout=stackLayout;horizontal=1;startSize=26;fillColor=none;horizontalStack=0;resizeParent=1;resizeParentMax=0;resizeLast=0;collapsible=1;marginBottom=0;whiteSpace=wrap;html=1;" vertex="1" parent="1">
          <mxGeometry x="1556" y="1166" width="140" height="80" as="geometry" />
        </mxCell>
        <mxCell id="2X2wgZmx4aFdKQlFenH2-131" value="+action(uint64_t bitboard, uint64_t blocking): uint64_t" style="text;strokeColor=none;fillColor=none;align=left;verticalAlign=top;spacingLeft=4;spacingRight=4;overflow=hidden;rotatable=0;points=[[0,0.5],[1,0.5]];portConstraint=eastwest;whiteSpace=wrap;html=1;" vertex="1" parent="2X2wgZmx4aFdKQlFenH2-130">
          <mxGeometry y="26" width="140" height="54" as="geometry" />
        </mxCell>
        <mxCell id="2X2wgZmx4aFdKQlFenH2-136" value="1" style="endArrow=open;html=1;endSize=12;startArrow=diamondThin;startSize=14;startFill=1;edgeStyle=orthogonalEdgeStyle;align=left;verticalAlign=bottom;rounded=0;exitX=1.004;exitY=0.055;exitDx=0;exitDy=0;exitPerimeter=0;" edge="1" parent="1" source="2X2wgZmx4aFdKQlFenH2-74" target="2X2wgZmx4aFdKQlFenH2-70">
          <mxGeometry x="-1" y="3" relative="1" as="geometry">
            <mxPoint x="970" y="610" as="sourcePoint" />
            <mxPoint x="1130" y="610" as="targetPoint" />
          </mxGeometry>
        </mxCell>
        <mxCell id="2X2wgZmx4aFdKQlFenH2-137" value="1" style="endArrow=open;html=1;endSize=12;startArrow=diamondThin;startSize=14;startFill=1;edgeStyle=orthogonalEdgeStyle;align=left;verticalAlign=bottom;rounded=0;exitX=1.011;exitY=0.633;exitDx=0;exitDy=0;exitPerimeter=0;" edge="1" parent="1" source="2X2wgZmx4aFdKQlFenH2-75" target="2X2wgZmx4aFdKQlFenH2-66">
          <mxGeometry x="-1" y="3" relative="1" as="geometry">
            <mxPoint x="941" y="517" as="sourcePoint" />
            <mxPoint x="1060" y="555" as="targetPoint" />
          </mxGeometry>
        </mxCell>
        <mxCell id="2X2wgZmx4aFdKQlFenH2-138" value="1" style="endArrow=open;html=1;endSize=12;startArrow=diamondThin;startSize=14;startFill=1;edgeStyle=orthogonalEdgeStyle;align=left;verticalAlign=bottom;rounded=0;exitX=1.013;exitY=0.324;exitDx=0;exitDy=0;exitPerimeter=0;" edge="1" parent="1" source="2X2wgZmx4aFdKQlFenH2-77" target="2X2wgZmx4aFdKQlFenH2-82">
          <mxGeometry x="-1" y="3" relative="1" as="geometry">
            <mxPoint x="943" y="617" as="sourcePoint" />
            <mxPoint x="1060" y="715" as="targetPoint" />
            <Array as="points">
              <mxPoint x="960" y="711" />
              <mxPoint x="960" y="825" />
            </Array>
          </mxGeometry>
        </mxCell>
        <mxCell id="2X2wgZmx4aFdKQlFenH2-147" value="1" style="endArrow=open;html=1;endSize=12;startArrow=diamondThin;startSize=14;startFill=1;edgeStyle=orthogonalEdgeStyle;align=left;verticalAlign=bottom;rounded=0;" edge="1" parent="1" source="2X2wgZmx4aFdKQlFenH2-103" target="2X2wgZmx4aFdKQlFenH2-86">
          <mxGeometry x="-1" y="3" relative="1" as="geometry">
            <mxPoint x="540" y="1074" as="sourcePoint" />
            <mxPoint x="700" y="1074" as="targetPoint" />
          </mxGeometry>
        </mxCell>
        <mxCell id="2X2wgZmx4aFdKQlFenH2-148" value="1" style="endArrow=open;html=1;endSize=12;startArrow=diamondThin;startSize=14;startFill=0;edgeStyle=orthogonalEdgeStyle;align=left;verticalAlign=bottom;rounded=0;" edge="1" parent="1" source="2X2wgZmx4aFdKQlFenH2-78" target="2X2wgZmx4aFdKQlFenH2-157">
          <mxGeometry x="-1" y="3" relative="1" as="geometry">
            <mxPoint x="1030" y="-690" as="sourcePoint" />
            <mxPoint x="1620" y="116.62353515625" as="targetPoint" />
          </mxGeometry>
        </mxCell>
        <mxCell id="2X2wgZmx4aFdKQlFenH2-171" style="edgeStyle=orthogonalEdgeStyle;rounded=0;orthogonalLoop=1;jettySize=auto;html=1;entryX=0.114;entryY=0.028;entryDx=0;entryDy=0;entryPerimeter=0;" edge="1" parent="1" source="2X2wgZmx4aFdKQlFenH2-149" target="2X2wgZmx4aFdKQlFenH2-41">
          <mxGeometry relative="1" as="geometry">
            <Array as="points">
              <mxPoint x="1640" y="990" />
              <mxPoint x="1522" y="990" />
            </Array>
          </mxGeometry>
        </mxCell>
        <mxCell id="2X2wgZmx4aFdKQlFenH2-149" value="ChessLogger" style="swimlane;fontStyle=1;align=center;verticalAlign=top;childLayout=stackLayout;horizontal=1;startSize=26;horizontalStack=0;resizeParent=1;resizeParentMax=0;resizeLast=0;collapsible=1;marginBottom=0;whiteSpace=wrap;html=1;" vertex="1" parent="1">
          <mxGeometry x="1601.5" y="454" width="300" height="120" as="geometry" />
        </mxCell>
        <mxCell id="2X2wgZmx4aFdKQlFenH2-150" value="- namedCalls: std::vector&amp;lt;std::vector&amp;lt;const char*&amp;gt;&amp;gt;" style="text;strokeColor=none;fillColor=none;align=left;verticalAlign=top;spacingLeft=4;spacingRight=4;overflow=hidden;rotatable=0;points=[[0,0.5],[1,0.5]];portConstraint=eastwest;whiteSpace=wrap;html=1;" vertex="1" parent="2X2wgZmx4aFdKQlFenH2-149">
          <mxGeometry y="26" width="300" height="34" as="geometry" />
        </mxCell>
        <mxCell id="2X2wgZmx4aFdKQlFenH2-151" value="" style="line;strokeWidth=1;fillColor=none;align=left;verticalAlign=middle;spacingTop=-1;spacingLeft=3;spacingRight=3;rotatable=0;labelPosition=right;points=[];portConstraint=eastwest;strokeColor=inherit;" vertex="1" parent="2X2wgZmx4aFdKQlFenH2-149">
          <mxGeometry y="60" width="300" height="8" as="geometry" />
        </mxCell>
        <mxCell id="2X2wgZmx4aFdKQlFenH2-152" value="&lt;div&gt;+ moving: QString(QPoint pos, QPoint target)&lt;/div&gt;&lt;div&gt;+ moving: QString(QPoint pos, QPoint target, Figure *figure)&lt;/div&gt;" style="text;strokeColor=none;fillColor=none;align=left;verticalAlign=top;spacingLeft=4;spacingRight=4;overflow=hidden;rotatable=0;points=[[0,0.5],[1,0.5]];portConstraint=eastwest;whiteSpace=wrap;html=1;" vertex="1" parent="2X2wgZmx4aFdKQlFenH2-149">
          <mxGeometry y="68" width="300" height="52" as="geometry" />
        </mxCell>
        <mxCell id="2X2wgZmx4aFdKQlFenH2-153" value="PVsPOffline" style="swimlane;fontStyle=1;align=center;verticalAlign=top;childLayout=stackLayout;horizontal=1;startSize=26;horizontalStack=0;resizeParent=1;resizeParentMax=0;resizeLast=0;collapsible=1;marginBottom=0;whiteSpace=wrap;html=1;" vertex="1" parent="1">
          <mxGeometry x="1350" y="454" width="210" height="134" as="geometry" />
        </mxCell>
        <mxCell id="2X2wgZmx4aFdKQlFenH2-154" value="&lt;div&gt;+ figurePlacement: FigureDisposition&lt;/div&gt;&lt;div&gt;+ switchTurn():&amp;nbsp;&lt;span style=&quot;background-color: initial;&quot;&gt;void&lt;/span&gt;&lt;span style=&quot;background-color: initial;&quot;&gt;&amp;nbsp;&lt;/span&gt;&lt;br&gt;&lt;/div&gt;&lt;div&gt;- figureDispositionBitboard: Bitboard&lt;/div&gt;&lt;div&gt;- timeLeftPlayerOne: QTime&lt;/div&gt;&lt;div&gt;- timeLeftPlayerTwo: QTime&lt;/div&gt;" style="text;strokeColor=none;fillColor=none;align=left;verticalAlign=top;spacingLeft=4;spacingRight=4;overflow=hidden;rotatable=0;points=[[0,0.5],[1,0.5]];portConstraint=eastwest;whiteSpace=wrap;html=1;" vertex="1" parent="2X2wgZmx4aFdKQlFenH2-153">
          <mxGeometry y="26" width="210" height="74" as="geometry" />
        </mxCell>
        <mxCell id="2X2wgZmx4aFdKQlFenH2-155" value="" style="line;strokeWidth=1;fillColor=none;align=left;verticalAlign=middle;spacingTop=-1;spacingLeft=3;spacingRight=3;rotatable=0;labelPosition=right;points=[];portConstraint=eastwest;strokeColor=inherit;" vertex="1" parent="2X2wgZmx4aFdKQlFenH2-153">
          <mxGeometry y="100" width="210" height="8" as="geometry" />
        </mxCell>
        <mxCell id="2X2wgZmx4aFdKQlFenH2-156" value="+ switchTurn(): void" style="text;strokeColor=none;fillColor=none;align=left;verticalAlign=top;spacingLeft=4;spacingRight=4;overflow=hidden;rotatable=0;points=[[0,0.5],[1,0.5]];portConstraint=eastwest;whiteSpace=wrap;html=1;" vertex="1" parent="2X2wgZmx4aFdKQlFenH2-153">
          <mxGeometry y="108" width="210" height="26" as="geometry" />
        </mxCell>
        <mxCell id="2X2wgZmx4aFdKQlFenH2-157" value="GameMode" style="swimlane;fontStyle=1;align=center;verticalAlign=top;childLayout=stackLayout;horizontal=1;startSize=26;horizontalStack=0;resizeParent=1;resizeParentMax=0;resizeLast=0;collapsible=1;marginBottom=0;whiteSpace=wrap;html=1;" vertex="1" parent="1">
          <mxGeometry x="1300" y="50" width="310" height="330" as="geometry" />
        </mxCell>
        <mxCell id="2X2wgZmx4aFdKQlFenH2-158" value="&lt;div&gt;&lt;span style=&quot;background-color: initial;&quot;&gt;# classicDisposition: const std::string&lt;/span&gt;&lt;br&gt;&lt;/div&gt;&lt;div&gt;&lt;span style=&quot;background-color: initial;&quot;&gt;&lt;div&gt;# timeLeftPlayerOne: QTime&lt;/div&gt;&lt;div&gt;# timeLeftPlayerTwo: QTime&lt;/div&gt;&lt;div&gt;# logMsg: QString&lt;/div&gt;&lt;div&gt;# settings: SettingsJson&lt;/div&gt;&lt;div&gt;# figurePlacement: std::vector&amp;lt;std::vector&amp;lt;Figure*&amp;gt;&amp;gt;&lt;/div&gt;&lt;div&gt;# turnColor: FigureColor&lt;/div&gt;&lt;div&gt;# figureDispositionBitboard: uint64_t&lt;/div&gt;&lt;/span&gt;&lt;/div&gt;" style="text;strokeColor=none;fillColor=none;align=left;verticalAlign=top;spacingLeft=4;spacingRight=4;overflow=hidden;rotatable=0;points=[[0,0.5],[1,0.5]];portConstraint=eastwest;whiteSpace=wrap;html=1;" vertex="1" parent="2X2wgZmx4aFdKQlFenH2-157">
          <mxGeometry y="26" width="310" height="134" as="geometry" />
        </mxCell>
        <mxCell id="2X2wgZmx4aFdKQlFenH2-159" value="" style="line;strokeWidth=1;fillColor=none;align=left;verticalAlign=middle;spacingTop=-1;spacingLeft=3;spacingRight=3;rotatable=0;labelPosition=right;points=[];portConstraint=eastwest;strokeColor=inherit;" vertex="1" parent="2X2wgZmx4aFdKQlFenH2-157">
          <mxGeometry y="160" width="310" height="8" as="geometry" />
        </mxCell>
        <mxCell id="2X2wgZmx4aFdKQlFenH2-160" value="&lt;div&gt;+ checkFigure(QPoint realPos):&amp;nbsp;&lt;span style=&quot;background-color: initial;&quot;&gt;std::vector&amp;lt;QPoint&amp;gt;*&lt;/span&gt;&lt;br&gt;&lt;/div&gt;&lt;div&gt;+ moveFigure(QPoint realPos, QPoint realTarget):&amp;nbsp;&lt;span style=&quot;background-color: initial;&quot;&gt;bool&lt;/span&gt;&lt;span style=&quot;background-color: initial;&quot;&gt;&amp;nbsp;&lt;/span&gt;&lt;br&gt;&lt;/div&gt;&lt;div&gt;+ switchTurn():&amp;nbsp;&lt;span style=&quot;background-color: initial;&quot;&gt;void&lt;/span&gt;&lt;span style=&quot;background-color: initial;&quot;&gt;&amp;nbsp;&lt;/span&gt;&lt;br&gt;&lt;/div&gt;&lt;div&gt;# convertStringToDisposition: std::vector&amp;lt;std::vector&amp;lt;Figure*&amp;gt;&amp;gt;(std::string disposition)&lt;/div&gt;&lt;div&gt;# defineColorByChar: FigureColor(int c)&lt;/div&gt;&lt;div&gt;# convertPosToBitboard: uint64_t(QPoint pos)&lt;/div&gt;&lt;div&gt;# convertBitboardToPoses: std::vector&amp;lt;QPoint&amp;gt;*(uint64_t bitboard)&lt;/div&gt;&lt;div&gt;# convertDispositionToBitboard: uint64_t(std::vector&amp;lt;std::vector&amp;lt;Figure*&amp;gt;&amp;gt; disposition)&lt;/div&gt;" style="text;strokeColor=none;fillColor=none;align=left;verticalAlign=top;spacingLeft=4;spacingRight=4;overflow=hidden;rotatable=0;points=[[0,0.5],[1,0.5]];portConstraint=eastwest;whiteSpace=wrap;html=1;" vertex="1" parent="2X2wgZmx4aFdKQlFenH2-157">
          <mxGeometry y="168" width="310" height="162" as="geometry" />
        </mxCell>
        <mxCell id="2X2wgZmx4aFdKQlFenH2-161" value="Extends" style="endArrow=block;endSize=16;endFill=0;html=1;rounded=0;" edge="1" parent="1" source="2X2wgZmx4aFdKQlFenH2-153" target="2X2wgZmx4aFdKQlFenH2-157">
          <mxGeometry width="160" relative="1" as="geometry">
            <mxPoint x="1330" y="20" as="sourcePoint" />
            <mxPoint x="1490" y="20" as="targetPoint" />
          </mxGeometry>
        </mxCell>
        <mxCell id="2X2wgZmx4aFdKQlFenH2-162" value="1" style="endArrow=open;html=1;endSize=12;startArrow=diamondThin;startSize=14;startFill=1;edgeStyle=orthogonalEdgeStyle;align=left;verticalAlign=bottom;rounded=0;" edge="1" parent="1" source="2X2wgZmx4aFdKQlFenH2-157" target="2X2wgZmx4aFdKQlFenH2-149">
          <mxGeometry x="-1" y="3" relative="1" as="geometry">
            <mxPoint x="1320" y="120" as="sourcePoint" />
            <mxPoint x="1480" y="120" as="targetPoint" />
            <Array as="points">
              <mxPoint x="1620" y="340" />
              <mxPoint x="1620" y="340" />
            </Array>
          </mxGeometry>
        </mxCell>
        <mxCell id="2X2wgZmx4aFdKQlFenH2-163" value="1" style="endArrow=open;html=1;endSize=12;startArrow=diamondThin;startSize=14;startFill=0;edgeStyle=orthogonalEdgeStyle;align=left;verticalAlign=bottom;rounded=0;" edge="1" parent="1" source="2X2wgZmx4aFdKQlFenH2-78" target="2X2wgZmx4aFdKQlFenH2-95">
          <mxGeometry x="-1" y="3" relative="1" as="geometry">
            <mxPoint x="1130" y="215" as="sourcePoint" />
            <mxPoint x="1310" y="235" as="targetPoint" />
          </mxGeometry>
        </mxCell>
        <mxCell id="2X2wgZmx4aFdKQlFenH2-165" value="1" style="endArrow=open;html=1;endSize=12;startArrow=diamondThin;startSize=14;startFill=0;edgeStyle=orthogonalEdgeStyle;align=left;verticalAlign=bottom;rounded=0;" edge="1" parent="1" source="2X2wgZmx4aFdKQlFenH2-157" target="2X2wgZmx4aFdKQlFenH2-116">
          <mxGeometry x="-1" y="3" relative="1" as="geometry">
            <mxPoint x="1590" y="150" as="sourcePoint" />
            <mxPoint x="1750" y="150" as="targetPoint" />
            <Array as="points">
              <mxPoint x="1990" y="215" />
            </Array>
          </mxGeometry>
        </mxCell>
        <mxCell id="2X2wgZmx4aFdKQlFenH2-166" value="1" style="endArrow=open;html=1;endSize=12;startArrow=diamondThin;startSize=14;startFill=0;edgeStyle=orthogonalEdgeStyle;align=left;verticalAlign=bottom;rounded=0;" edge="1" parent="1" source="2X2wgZmx4aFdKQlFenH2-128" target="2X2wgZmx4aFdKQlFenH2-129">
          <mxGeometry x="-1" y="3" relative="1" as="geometry">
            <mxPoint x="1691" y="941" as="sourcePoint" />
            <mxPoint x="2111" y="916" as="targetPoint" />
          </mxGeometry>
        </mxCell>
        <mxCell id="2X2wgZmx4aFdKQlFenH2-168" value="1" style="endArrow=open;html=1;endSize=12;startArrow=diamondThin;startSize=14;startFill=1;edgeStyle=orthogonalEdgeStyle;align=left;verticalAlign=bottom;rounded=0;" edge="1" parent="1" source="2X2wgZmx4aFdKQlFenH2-103" target="2X2wgZmx4aFdKQlFenH2-75">
          <mxGeometry x="-1" y="3" relative="1" as="geometry">
            <mxPoint x="620" y="400" as="sourcePoint" />
            <mxPoint x="739" y="438" as="targetPoint" />
            <Array as="points">
              <mxPoint x="580" y="588" />
            </Array>
          </mxGeometry>
        </mxCell>
        <mxCell id="2X2wgZmx4aFdKQlFenH2-169" value="&lt;div&gt;&lt;br&gt;&lt;/div&gt;&lt;div&gt;&lt;br&gt;&lt;/div&gt;" style="endArrow=open;html=1;endSize=12;startArrow=diamondThin;startSize=14;startFill=1;edgeStyle=orthogonalEdgeStyle;align=left;verticalAlign=bottom;rounded=0;exitX=0.5;exitY=0;exitDx=0;exitDy=0;entryX=0;entryY=0.259;entryDx=0;entryDy=0;entryPerimeter=0;" edge="1" parent="1" source="2X2wgZmx4aFdKQlFenH2-74" target="2X2wgZmx4aFdKQlFenH2-160">
          <mxGeometry x="-1" y="3" relative="1" as="geometry">
            <mxPoint x="941" y="517" as="sourcePoint" />
            <mxPoint x="1060" y="555" as="targetPoint" />
            <Array as="points">
              <mxPoint x="800" y="360" />
              <mxPoint x="1200" y="360" />
              <mxPoint x="1200" y="260" />
            </Array>
          </mxGeometry>
        </mxCell>
        <mxCell id="2X2wgZmx4aFdKQlFenH2-170" value="" style="endArrow=block;dashed=1;endFill=0;endSize=12;html=1;rounded=0;" edge="1" parent="1" source="2X2wgZmx4aFdKQlFenH2-129" target="2X2wgZmx4aFdKQlFenH2-112">
          <mxGeometry width="160" relative="1" as="geometry">
            <mxPoint x="1791" y="1187" as="sourcePoint" />
            <mxPoint x="1951" y="1187" as="targetPoint" />
          </mxGeometry>
        </mxCell>
      </root>
    </mxGraphModel>
  </diagram>
</mxfile>
